<svg width="84" height="40" viewBox="0 0 84 40" fill="none" xmlns="http://www.w3.org/2000/svg">
<rect width="84" height="40" rx="12" fill="#F2EBE8"/>
<g clip-path="url(#clip0_19_28)">
<path d="M22.507 25.5V15.07H29.437V16.75H24.411V19.424H29.157V21.104H24.411V23.82H29.437V25.5H22.507ZM30.6792 25.5V17.884H32.4012V19.382L32.2612 19.116C32.4385 18.6587 32.7279 18.3133 33.1292 18.08C33.5399 17.8373 34.0159 17.716 34.5572 17.716C35.1172 17.716 35.6119 17.8373 36.0412 18.08C36.4799 18.3227 36.8205 18.6633 37.0632 19.102C37.3059 19.5313 37.4272 20.0307 37.4272 20.6V25.5H35.5932V21.034C35.5932 20.698 35.5279 20.4087 35.3972 20.166C35.2665 19.9233 35.0845 19.7367 34.8512 19.606C34.6272 19.466 34.3612 19.396 34.0532 19.396C33.7545 19.396 33.4885 19.466 33.2552 19.606C33.0219 19.7367 32.8399 19.9233 32.7092 20.166C32.5785 20.4087 32.5132 20.698 32.5132 21.034V25.5H30.6792ZM42.45 25.584C41.5914 25.584 40.924 25.3507 40.448 24.884C39.9814 24.408 39.748 23.7407 39.748 22.882V19.522H38.432V17.884H38.572C38.9454 17.884 39.2347 17.786 39.44 17.59C39.6454 17.394 39.748 17.1093 39.748 16.736V16.148H41.582V17.884H43.332V19.522H41.582V22.784C41.582 23.036 41.624 23.2507 41.708 23.428C41.8014 23.6053 41.9414 23.7407 42.128 23.834C42.324 23.9273 42.5714 23.974 42.87 23.974C42.9354 23.974 43.01 23.9693 43.094 23.96C43.1874 23.9507 43.276 23.9413 43.36 23.932V25.5C43.2294 25.5187 43.08 25.5373 42.912 25.556C42.744 25.5747 42.59 25.584 42.45 25.584ZM44.7612 25.5V17.884H46.4832V19.578L46.3432 19.326C46.5206 18.7567 46.7959 18.36 47.1692 18.136C47.5519 17.912 48.0092 17.8 48.5412 17.8H48.9892V19.424H48.3312C47.8086 19.424 47.3886 19.5873 47.0712 19.914C46.7539 20.2313 46.5952 20.6793 46.5952 21.258V25.5H44.7612ZM52.3076 25.668C51.7756 25.668 51.3136 25.5793 50.9216 25.402C50.5296 25.2247 50.2262 24.9727 50.0116 24.646C49.7969 24.31 49.6896 23.9227 49.6896 23.484C49.6896 23.064 49.7829 22.6907 49.9696 22.364C50.1562 22.028 50.4456 21.748 50.8376 21.524C51.2296 21.3 51.7242 21.1413 52.3216 21.048L54.8136 20.642V22.042L52.6716 22.406C52.3076 22.4713 52.0369 22.588 51.8596 22.756C51.6822 22.924 51.5936 23.1433 51.5936 23.414C51.5936 23.6753 51.6916 23.8853 51.8876 24.044C52.0929 24.1933 52.3449 24.268 52.6436 24.268C53.0262 24.268 53.3622 24.1887 53.6516 24.03C53.9502 23.862 54.1789 23.6333 54.3376 23.344C54.5056 23.0547 54.5896 22.7373 54.5896 22.392V20.432C54.5896 20.1053 54.4589 19.8347 54.1976 19.62C53.9456 19.396 53.6096 19.284 53.1896 19.284C52.7976 19.284 52.4476 19.3913 52.1396 19.606C51.8409 19.8113 51.6216 20.0867 51.4816 20.432L49.9836 19.704C50.1329 19.3027 50.3662 18.9573 50.6836 18.668C51.0102 18.3693 51.3929 18.136 51.8316 17.968C52.2702 17.8 52.7462 17.716 53.2596 17.716C53.8849 17.716 54.4356 17.8327 54.9116 18.066C55.3876 18.29 55.7562 18.6073 56.0176 19.018C56.2882 19.4193 56.4236 19.8907 56.4236 20.432V25.5H54.6876V24.198L55.0796 24.17C54.8836 24.4967 54.6502 24.772 54.3796 24.996C54.1089 25.2107 53.8009 25.3787 53.4556 25.5C53.1102 25.612 52.7276 25.668 52.3076 25.668ZM58.1186 25.5V17.884H59.8406V19.578L59.7006 19.326C59.878 18.7567 60.1533 18.36 60.5266 18.136C60.9093 17.912 61.3666 17.8 61.8986 17.8H62.3466V19.424H61.6886C61.166 19.424 60.746 19.5873 60.4286 19.914C60.1113 20.2313 59.9526 20.6793 59.9526 21.258V25.5H58.1186Z" fill="#1C120D"/>
</g>
<defs>
<clipPath id="clip0_19_28">
<rect width="43" height="21" fill="white" transform="translate(20.5 9.5)"/>
</clipPath>
</defs>
</svg>
