<svg width="324" height="45" viewBox="0 0 324 45" fill="none" xmlns="http://www.w3.org/2000/svg">
<path d="M34.3767 44.6875C47.3233 34.6232 49.5197 14.7925 39.2358 1.33694L1.02559 17.8133L34.3767 44.6875Z" fill="#F6DA77"/>
<path d="M30.0608 41.1787L31.1634 42.1691C40.8541 33.8252 45.6858 18.185 35.566 2.85053L34.3742 3.50603C41.548 15.678 39.808 31.4769 30.0608 41.1787Z" fill="#860D16"/>
<path d="M31.121 42.1141L34.2811 44.6735C47.3124 34.7192 49.573 14.7514 39.151 1.22699L35.5236 2.79554C44.3084 16.6177 42.5924 31.3466 31.121 42.1141Z" fill="#C98E52"/>
<path d="M16.5769 15.6433C15.8567 14.7087 15.5406 13.6379 15.6711 12.486C15.7254 12.006 16.1513 11.6778 16.576 11.7886C17.054 11.8584 17.3929 12.2982 17.2962 12.7232C17.1441 14.0672 18.2032 15.4416 19.5416 15.637C20.2108 15.7347 20.8594 15.5854 21.3917 15.1752C21.924 14.765 22.2337 14.1759 22.3097 13.5039C22.3641 13.0239 22.79 12.6957 23.2147 12.8065C23.6927 12.8763 24.0316 13.3161 23.9349 13.7411C23.8045 14.8931 23.2602 15.8383 22.3552 16.5357C21.4503 17.233 20.3976 17.5185 19.2504 17.351C18.3053 17.1155 17.2548 16.523 16.5769 15.6433ZM37.7509 21.3204L37.4847 21.5255C37.2827 21.5936 37.1338 21.6207 36.9003 21.5378C36.6667 21.4549 36.5396 21.2899 36.5081 21.139C36.2757 20.6171 35.8303 20.2593 35.3208 20.0386C34.8113 19.8178 34.2268 19.8301 33.7162 20.0483C32.695 20.4847 32.2561 21.7869 32.721 22.8306C32.922 23.2015 32.7188 23.7085 32.3679 23.8037C32.0061 23.9948 31.539 23.8291 31.3913 23.4172C30.8101 22.1125 30.9731 20.6725 31.826 19.5772C32.1671 19.1391 32.593 18.8109 33.0504 18.6337C33.9227 18.2243 34.8896 18.2679 35.8238 18.5994C36.7581 18.931 37.4577 19.6186 37.8911 20.5114C37.9117 20.7584 37.9215 21.1013 37.7509 21.3204ZM24.5586 36.1305L24.3468 35.8556C24.2729 35.6496 24.2414 35.4987 24.3587 35.3206C24.4228 35.1836 24.5402 35.0056 24.7422 34.9375C25.1996 34.7603 25.5831 34.3771 25.7863 33.8701C25.9894 33.363 26.0014 32.828 25.769 32.3062C25.3464 31.3174 24.0939 30.793 23.1791 31.1474C22.8706 31.2975 22.3611 31.0768 22.2557 30.7199C22.108 30.3079 22.2471 29.9379 22.6512 29.8017C23.8213 29.3382 25.2552 29.5476 26.2199 30.4691C26.5697 30.8129 26.9086 31.2527 27.0987 31.7196C27.4897 32.5574 27.4767 33.5313 27.1453 34.3124C26.803 35.1895 26.1534 35.7778 25.3342 36.1461C25.0681 36.3512 24.7813 36.3094 24.5586 36.1305Z" fill="#83BF4F"/>
<path d="M29.503 26.3618C27.9136 28.8134 24.6393 29.4088 22.1147 27.6741C19.59 25.9394 18.8547 22.5629 20.4865 20.1663C22.076 17.7147 25.3503 17.1193 27.8749 18.854C30.3572 20.5338 31.0925 23.9103 29.503 26.3618ZM34.3729 33.5622C33.381 35.0275 31.4461 35.3794 29.9079 34.3742C28.4229 33.3279 27.9711 31.3102 28.963 29.8449C29.9549 28.3795 31.8897 28.0276 33.4279 29.0329C34.8706 30.0242 35.3224 32.0418 34.3729 33.5622ZM35.2276 14.8529C33.9369 16.8114 31.2047 17.3396 29.1787 15.9216C27.1527 14.5036 26.5434 11.7311 27.834 9.7726C29.1247 7.81413 31.8569 7.28593 33.8829 8.70392C35.9089 10.1219 36.5183 12.8945 35.2276 14.8529ZM18.8836 32.1793L13.4966 27.831C14.4993 26.2696 16.9122 25.9876 18.3863 27.1298C20.1679 28.5609 19.8332 30.659 18.8836 32.1793ZM16.3399 21.1711C15.0383 23.2256 12.2105 23.7398 10.1421 22.2669C8.02053 20.8349 7.42208 17.9664 8.77686 15.8709C10.0784 13.8164 12.9062 13.3022 14.9746 14.7751C17.043 16.2481 17.6414 19.1167 16.3399 21.1711Z" fill="#B21725"/>
<path d="M35.5236 2.79554C37.7158 5.75036 39.4288 9.07438 40.4824 12.6437C41.5892 16.172 41.9834 19.9866 41.5172 23.6755C41.1042 27.3235 39.8732 30.9008 38.0589 34.0515C36.2445 37.2021 33.8468 39.926 31.0678 42.1552C33.4546 39.5272 35.5764 36.6654 37.1463 33.5279C38.7163 30.3904 39.8299 26.9911 40.1788 23.4802C40.6233 19.9832 40.303 16.3745 39.4297 12.9291C38.6629 9.40171 37.2475 6.02356 35.5236 2.79554Z" fill="#E0A763"/>
<path d="M33.0184 5.85995L34.9112 6.13628L34.696 8.03706L32.8032 7.76074L33.0184 5.85995ZM35.5092 15.2668L37.4021 15.5432L37.1869 17.4439L35.294 17.1676L35.5092 15.2668ZM24.4453 9.06127L26.3381 9.33759L26.123 11.2384L24.2301 10.962L24.4453 9.06127ZM24.3157 15.1546L26.2086 15.431L25.9934 17.3317L24.1005 17.0554L24.3157 15.1546ZM31.7198 25.0436L33.6126 25.3199L33.3974 27.2207L31.5046 26.9443L31.7198 25.0436ZM29.0498 37.1594L30.9427 37.4357L30.7275 39.3365L28.8347 39.0602L29.0498 37.1594ZM17.597 20.2173L19.4898 20.4936L19.2747 22.3944L17.3818 22.1181L17.597 20.2173ZM14.3373 23.9708L16.2302 24.2471L16.015 26.1479L14.1222 25.8716L14.3373 23.9708ZM3.89005 17.3917L5.78291 17.668L5.56773 19.5688L3.67486 19.2925L3.89005 17.3917ZM29.7501 5.90395L31.1697 6.1112L31.0084 7.53678L29.5887 7.32954L29.7501 5.90395ZM29.4564 17.1552L30.8761 17.3624L30.7147 18.788L29.295 18.5807L29.4564 17.1552ZM35.1525 24.6152L36.5722 24.8224L36.4108 26.248L34.9911 26.0408L35.1525 24.6152ZM19.4968 13.3372L20.9165 13.5445L20.7551 14.97L19.3354 14.7628L19.4968 13.3372ZM13.7627 12.4318L15.1824 12.6391L15.0215 14.0642L13.6019 13.857L13.7627 12.4318ZM6.18267 16.2314L7.60231 16.4386L7.44092 17.8642L6.02128 17.657L6.18267 16.2314ZM11.1985 23.6224L12.6182 23.8296L12.4563 25.2556L11.0372 25.048L11.1985 23.6224ZM20.359 27.8687L21.7786 28.0759L21.6172 29.5015L20.1976 29.2942L20.359 27.8687ZM21.6553 32.3585L23.0749 32.5657L22.9135 33.9913L21.4944 33.7837L21.6553 32.3585ZM28.2342 34.5914L29.6533 34.7991L29.4919 36.2247L28.0722 36.0174L28.2342 34.5914Z" fill="#FFAB41"/>
<path d="M67.1386 19V1.12H73.8106C75.0266 1.12 76.0986 1.344 77.0266 1.792C77.9706 2.224 78.7066 2.864 79.2346 3.712C79.7626 4.544 80.0266 5.56 80.0266 6.76C80.0266 7.944 79.7546 8.96 79.2106 9.808C78.6826 10.64 77.9546 11.28 77.0266 11.728C76.0986 12.176 75.0266 12.4 73.8106 12.4H70.4026V19H67.1386ZM70.4026 9.52H73.8586C74.4506 9.52 74.9626 9.408 75.3946 9.184C75.8266 8.944 76.1626 8.616 76.4026 8.2C76.6426 7.784 76.7626 7.304 76.7626 6.76C76.7626 6.2 76.6426 5.72 76.4026 5.32C76.1626 4.904 75.8266 4.584 75.3946 4.36C74.9626 4.12 74.4506 4 73.8586 4H70.4026V9.52ZM82.4371 19V5.944H85.5811V19H82.4371ZM82.4371 4.48V1.12H85.5811V4.48H82.4371ZM87.356 19V16.456L94.94 7.672L95.42 8.752H87.692V5.944H98.204V8.512L90.764 17.296L90.284 16.216H98.252V19H87.356ZM98.9107 19V16.456L106.495 7.672L106.975 8.752H99.2467V5.944H109.759V8.512L102.319 17.296L101.839 16.216H109.807V19H98.9107ZM115.553 19.288C114.641 19.288 113.849 19.136 113.177 18.832C112.505 18.528 111.985 18.096 111.617 17.536C111.249 16.96 111.065 16.296 111.065 15.544C111.065 14.824 111.225 14.184 111.545 13.624C111.865 13.048 112.361 12.568 113.033 12.184C113.705 11.8 114.553 11.528 115.577 11.368L119.849 10.672V13.072L116.177 13.696C115.553 13.808 115.089 14.008 114.785 14.296C114.481 14.584 114.329 14.96 114.329 15.424C114.329 15.872 114.497 16.232 114.833 16.504C115.185 16.76 115.617 16.888 116.129 16.888C116.785 16.888 117.361 16.752 117.857 16.48C118.369 16.192 118.761 15.8 119.033 15.304C119.321 14.808 119.465 14.264 119.465 13.672V10.312C119.465 9.752 119.241 9.288 118.793 8.92C118.361 8.536 117.785 8.344 117.065 8.344C116.393 8.344 115.793 8.528 115.265 8.896C114.753 9.248 114.377 9.72 114.137 10.312L111.569 9.064C111.825 8.376 112.225 7.784 112.769 7.288C113.329 6.776 113.985 6.376 114.737 6.088C115.489 5.8 116.305 5.656 117.185 5.656C118.257 5.656 119.201 5.856 120.017 6.256C120.833 6.64 121.465 7.184 121.913 7.888C122.377 8.576 122.609 9.384 122.609 10.312V19H119.633V16.768L120.305 16.72C119.969 17.28 119.569 17.752 119.105 18.136C118.641 18.504 118.113 18.792 117.521 19C116.929 19.192 116.273 19.288 115.553 19.288ZM67.1386 42V24.12H73.8106C75.0266 24.12 76.0986 24.344 77.0266 24.792C77.9706 25.224 78.7066 25.864 79.2346 26.712C79.7626 27.544 80.0266 28.56 80.0266 29.76C80.0266 30.944 79.7546 31.96 79.2106 32.808C78.6826 33.64 77.9546 34.28 77.0266 34.728C76.0986 35.176 75.0266 35.4 73.8106 35.4H70.4026V42H67.1386ZM70.4026 32.52H73.8586C74.4506 32.52 74.9626 32.408 75.3946 32.184C75.8266 31.944 76.1626 31.616 76.4026 31.2C76.6426 30.784 76.7626 30.304 76.7626 29.76C76.7626 29.2 76.6426 28.72 76.4026 28.32C76.1626 27.904 75.8266 27.584 75.3946 27.36C74.9626 27.12 74.4506 27 73.8586 27H70.4026V32.52ZM85.6237 42.288C84.7117 42.288 83.9197 42.136 83.2477 41.832C82.5757 41.528 82.0557 41.096 81.6877 40.536C81.3197 39.96 81.1357 39.296 81.1357 38.544C81.1357 37.824 81.2957 37.184 81.6157 36.624C81.9357 36.048 82.4317 35.568 83.1037 35.184C83.7757 34.8 84.6237 34.528 85.6477 34.368L89.9197 33.672V36.072L86.2477 36.696C85.6237 36.808 85.1597 37.008 84.8557 37.296C84.5517 37.584 84.3997 37.96 84.3997 38.424C84.3997 38.872 84.5677 39.232 84.9037 39.504C85.2557 39.76 85.6877 39.888 86.1997 39.888C86.8557 39.888 87.4317 39.752 87.9277 39.48C88.4397 39.192 88.8317 38.8 89.1037 38.304C89.3917 37.808 89.5357 37.264 89.5357 36.672V33.312C89.5357 32.752 89.3117 32.288 88.8637 31.92C88.4317 31.536 87.8557 31.344 87.1357 31.344C86.4637 31.344 85.8637 31.528 85.3357 31.896C84.8237 32.248 84.4477 32.72 84.2077 33.312L81.6397 32.064C81.8957 31.376 82.2957 30.784 82.8397 30.288C83.3997 29.776 84.0557 29.376 84.8077 29.088C85.5597 28.8 86.3757 28.656 87.2557 28.656C88.3277 28.656 89.2717 28.856 90.0877 29.256C90.9037 29.64 91.5357 30.184 91.9837 30.888C92.4477 31.576 92.6797 32.384 92.6797 33.312V42H89.7037V39.768L90.3757 39.72C90.0397 40.28 89.6397 40.752 89.1757 41.136C88.7117 41.504 88.1837 41.792 87.5917 42C86.9997 42.192 86.3437 42.288 85.6237 42.288ZM95.5855 42V23.832H98.7295V42H95.5855ZM105.592 42.288C104.68 42.288 103.888 42.136 103.216 41.832C102.544 41.528 102.024 41.096 101.656 40.536C101.288 39.96 101.104 39.296 101.104 38.544C101.104 37.824 101.264 37.184 101.584 36.624C101.904 36.048 102.4 35.568 103.072 35.184C103.744 34.8 104.592 34.528 105.616 34.368L109.888 33.672V36.072L106.216 36.696C105.592 36.808 105.128 37.008 104.824 37.296C104.52 37.584 104.368 37.96 104.368 38.424C104.368 38.872 104.536 39.232 104.872 39.504C105.224 39.76 105.656 39.888 106.168 39.888C106.824 39.888 107.4 39.752 107.896 39.48C108.408 39.192 108.8 38.8 109.072 38.304C109.36 37.808 109.504 37.264 109.504 36.672V33.312C109.504 32.752 109.28 32.288 108.832 31.92C108.4 31.536 107.824 31.344 107.104 31.344C106.432 31.344 105.832 31.528 105.304 31.896C104.792 32.248 104.416 32.72 104.176 33.312L101.608 32.064C101.864 31.376 102.264 30.784 102.808 30.288C103.368 29.776 104.024 29.376 104.776 29.088C105.528 28.8 106.344 28.656 107.224 28.656C108.296 28.656 109.24 28.856 110.056 29.256C110.872 29.64 111.504 30.184 111.952 30.888C112.416 31.576 112.648 32.384 112.648 33.312V42H109.672V39.768L110.344 39.72C110.008 40.28 109.608 40.752 109.144 41.136C108.68 41.504 108.152 41.792 107.56 42C106.968 42.192 106.312 42.288 105.592 42.288ZM121.842 42.288C120.546 42.288 119.378 41.992 118.338 41.4C117.314 40.792 116.506 39.976 115.914 38.952C115.322 37.912 115.026 36.744 115.026 35.448C115.026 34.152 115.322 32.992 115.914 31.968C116.506 30.944 117.314 30.136 118.338 29.544C119.378 28.952 120.546 28.656 121.842 28.656C122.77 28.656 123.634 28.824 124.434 29.16C125.234 29.48 125.922 29.928 126.498 30.504C127.09 31.064 127.514 31.736 127.77 32.52L125.01 33.72C124.77 33.064 124.362 32.536 123.786 32.136C123.226 31.736 122.578 31.536 121.842 31.536C121.154 31.536 120.538 31.704 119.994 32.04C119.466 32.376 119.05 32.84 118.746 33.432C118.442 34.024 118.29 34.704 118.29 35.472C118.29 36.24 118.442 36.92 118.746 37.512C119.05 38.104 119.466 38.568 119.994 38.904C120.538 39.24 121.154 39.408 121.842 39.408C122.594 39.408 123.25 39.208 123.81 38.808C124.37 38.408 124.77 37.872 125.01 37.2L127.77 38.448C127.514 39.184 127.098 39.848 126.522 40.44C125.946 41.016 125.258 41.472 124.458 41.808C123.658 42.128 122.786 42.288 121.842 42.288ZM136.348 42.288C135.004 42.288 133.828 41.984 132.82 41.376C131.812 40.768 131.028 39.944 130.468 38.904C129.908 37.864 129.628 36.712 129.628 35.448C129.628 34.136 129.908 32.976 130.468 31.968C131.044 30.944 131.82 30.136 132.796 29.544C133.788 28.952 134.892 28.656 136.108 28.656C137.132 28.656 138.028 28.824 138.796 29.16C139.58 29.496 140.244 29.96 140.788 30.552C141.332 31.144 141.748 31.824 142.036 32.592C142.324 33.344 142.468 34.16 142.468 35.04C142.468 35.264 142.452 35.496 142.42 35.736C142.404 35.976 142.364 36.184 142.3 36.36H132.22V33.96H140.524L139.036 35.088C139.18 34.352 139.14 33.696 138.916 33.12C138.708 32.544 138.356 32.088 137.86 31.752C137.38 31.416 136.796 31.248 136.108 31.248C135.452 31.248 134.868 31.416 134.356 31.752C133.844 32.072 133.452 32.552 133.18 33.192C132.924 33.816 132.828 34.576 132.892 35.472C132.828 36.272 132.932 36.984 133.204 37.608C133.492 38.216 133.908 38.688 134.452 39.024C135.012 39.36 135.652 39.528 136.372 39.528C137.092 39.528 137.7 39.376 138.196 39.072C138.708 38.768 139.108 38.36 139.396 37.848L141.94 39.096C141.684 39.72 141.284 40.272 140.74 40.752C140.196 41.232 139.548 41.608 138.796 41.88C138.06 42.152 137.244 42.288 136.348 42.288Z" fill="#1C120D"/>
</svg>
